<svg width="25" height="25" viewBox="0 0 25 25" fill="none" xmlns="http://www.w3.org/2000/svg">
<g clip-path="url(#clip0)">
<path d="M17.3462 4.39448H23.5352C24.0745 4.39448 24.5117 4.83169 24.5117 5.37104V23.5351C24.5117 24.0745 24.0745 24.5117 23.5352 24.5117H1.46484C0.925488 24.5117 0.488281 24.0745 0.488281 23.5351V5.37104C0.488281 4.83169 0.925488 4.39448 1.46484 4.39448H3.74756H17.3462Z" fill="white"/>
<path d="M23.5352 4.39448H17.3462H3.74756H1.46484C0.925488 4.39448 0.488281 4.83169 0.488281 5.37104V10.9375H24.5117V5.37104C24.5117 4.83169 24.0745 4.39448 23.5352 4.39448Z" fill="#F28C00"/>
<path d="M19.3848 20.3613V24.5117L24.5117 19.3847H20.3613C19.822 19.3847 19.3848 19.8219 19.3848 20.3613Z" fill="#FFA96B"/>
<path d="M6.80942 7.07622C6.80942 7.80996 6.02641 8.28916 5.38017 7.9416C4.42968 7.43042 3.78207 6.42612 3.78207 5.27339V3.56162C3.78207 1.90029 5.10131 0.514013 6.7624 0.488671C8.45312 0.46289 9.83676 1.83071 9.83676 3.51567V4.39448H7.88364V3.54209C7.88364 2.96035 7.43217 2.46426 6.85087 2.44229C6.23974 2.41919 5.7352 2.90962 5.7352 3.51572V5.27344C5.7352 5.67647 5.95829 6.02842 6.28754 6.21216C6.60414 6.38882 6.80942 6.71362 6.80942 7.07622V7.07622Z" fill="white"/>
<path d="M18.1906 7.07621C18.1906 7.80995 17.4076 8.28915 16.7614 7.94159C15.8109 7.43041 15.1633 6.42612 15.1633 5.27338V3.56167C15.1633 1.90034 16.4825 0.514062 18.1436 0.48872C19.8343 0.462939 21.218 1.83076 21.218 3.51572V4.39453H19.2648V3.54209C19.2648 2.96035 18.8134 2.46426 18.2321 2.44228C17.6209 2.41919 17.1164 2.90962 17.1164 3.51572V5.27343C17.1164 5.67646 17.3395 6.02841 17.6687 6.21215C17.9853 6.38881 18.1906 6.71362 18.1906 7.07621Z" fill="white"/>
<path d="M23.5352 3.90619H21.7062V3.51571C21.7062 2.56776 21.3333 1.6785 20.6563 1.0117C19.9795 0.345152 19.0838 -0.0139789 18.1361 0.000474209C16.2276 0.0295758 14.675 1.62709 14.675 3.56166V3.90624H10.325V3.51576C10.325 2.56781 9.9522 1.67855 9.27515 1.01175C8.59834 0.34525 7.70273 -0.0136371 6.75498 0.000523037C4.84648 0.0295269 3.2938 1.62709 3.2938 3.56161V3.90619H1.46484C0.657129 3.90619 0 4.56332 0 5.37103V23.5351C0 24.3428 0.657129 24.9999 1.46484 24.9999H23.5352C24.3429 24.9999 25 24.3428 25 23.5351V5.37103C25 4.56332 24.3429 3.90619 23.5352 3.90619V3.90619ZM15.6515 3.56161C15.6515 2.15741 16.7728 0.997886 18.151 0.97689C18.1643 0.976695 18.1775 0.976548 18.1908 0.976548C18.8607 0.976548 19.4916 1.23524 19.971 1.70746C20.4602 2.18924 20.7296 2.83143 20.7296 3.51566V3.90614H19.7531V3.54203C19.7531 2.68358 19.0931 1.98617 18.2505 1.95423C17.8226 1.93822 17.4162 2.09291 17.1073 2.39027C16.7982 2.68788 16.6281 3.08749 16.6281 3.51566V5.27332C16.6281 5.83905 16.9356 6.36209 17.4307 6.63836C17.6007 6.73329 17.7023 6.89696 17.7023 7.07616C17.7023 7.25081 17.6123 7.40887 17.4614 7.49906C17.3914 7.5409 17.2054 7.62611 16.9926 7.51151C16.1654 7.06668 15.6515 6.20902 15.6515 5.27332V3.56161H15.6515ZM17.6046 3.90619V3.51571C17.6046 3.35545 17.6686 3.20555 17.7847 3.09378C17.9006 2.98216 18.0533 2.92416 18.2136 2.93016C18.524 2.94188 18.7765 3.21634 18.7765 3.54203V3.90614H17.6046V3.90619ZM4.27036 3.56161C4.27036 2.15741 5.3916 0.997886 6.76982 0.97689C6.78311 0.976695 6.79634 0.976548 6.80962 0.976548C7.47954 0.976548 8.1104 1.23524 8.58989 1.70746C9.07905 2.18919 9.34849 2.83143 9.34849 3.51566V3.90614H8.37192V3.54203C8.37192 2.68358 7.71191 1.98617 6.86934 1.95423C6.44146 1.93822 6.03506 2.09291 5.72617 2.39027C5.41709 2.68788 5.24692 3.08749 5.24692 3.51566V5.27332C5.24692 5.83905 5.55449 6.36209 6.04951 6.63836C6.21958 6.73329 6.32114 6.89696 6.32114 7.07616C6.32114 7.25081 6.2311 7.40887 6.08027 7.49906C6.01021 7.5409 5.82422 7.62611 5.61143 7.51151C4.78423 7.06668 4.27031 6.20902 4.27031 5.27332V3.56161H4.27036ZM6.22349 3.90619V3.51571C6.22349 3.35545 6.28745 3.20555 6.40352 3.09378C6.51943 2.98216 6.67192 2.92416 6.83242 2.93016C7.14282 2.94188 7.39536 3.21634 7.39536 3.54203V3.90614H6.22349V3.90619ZM24.0234 23.5351C24.0234 23.8043 23.8044 24.0234 23.5352 24.0234H1.46484C1.19561 24.0234 0.976562 23.8043 0.976562 23.5351V5.37103C0.976562 5.10179 1.19561 4.88275 1.46484 4.88275H3.2938V5.27337C3.2938 6.56908 4.00464 7.75628 5.14893 8.37166C5.36504 8.48787 5.5998 8.54574 5.83447 8.54574C6.09189 8.54574 6.34917 8.47606 6.58125 8.33729C7.02988 8.06922 7.29766 7.59774 7.29766 7.07616C7.29766 6.54608 7.00176 6.0516 6.52544 5.78563C6.33916 5.68167 6.22344 5.48539 6.22344 5.27332V4.8827H14.6749V5.27332C14.6749 6.56903 15.3857 7.75623 16.53 8.37162C16.7461 8.48783 16.9809 8.54569 17.2156 8.54569C17.473 8.54569 17.7303 8.47601 17.9624 8.33724C18.411 8.06917 18.6788 7.59769 18.6788 7.07611C18.6788 6.54603 18.3829 6.05155 17.9065 5.78558C17.7203 5.68163 17.6045 5.48534 17.6045 5.27328V4.88265H23.5352C23.8044 4.88265 24.0234 5.10169 24.0234 5.37093V23.5351Z" fill="#FFA96B"/>
<path d="M15.0533 20.3755C14.0492 20.3755 13.194 19.6355 13.0549 18.6385C13.0176 18.3714 13.2039 18.1248 13.4709 18.0874C13.738 18.0504 13.9847 18.2365 14.022 18.5036C14.0937 19.0175 14.5352 19.399 15.0535 19.399C15.0607 19.399 15.0677 19.3989 15.0749 19.3987C15.6177 19.3878 16.0649 18.9551 16.093 18.4137C16.108 18.1247 16.0069 17.8502 15.8083 17.641C15.6095 17.4317 15.3413 17.3164 15.0532 17.3164C14.6496 17.3164 14.484 17.3773 14.2774 17.4703C14.2537 17.481 14.2389 17.4883 14.2348 17.4903C14.0707 17.5737 13.8727 17.5581 13.7242 17.4492C13.5758 17.3403 13.5003 17.1576 13.5303 16.976L13.9026 14.7293C13.9417 14.4937 14.1455 14.3208 14.3843 14.3208H16.2633C16.533 14.3208 16.7516 14.5395 16.7516 14.8091C16.7516 15.0788 16.533 15.2974 16.2633 15.2974H14.7984L14.6218 16.3634C14.7489 16.3479 14.8902 16.3398 15.0532 16.3398C15.6037 16.3398 16.137 16.569 16.5165 16.9687C16.9013 17.374 17.0973 17.9052 17.0682 18.4644C17.0137 19.5146 16.1468 20.354 15.0946 20.3751C15.0808 20.3754 15.067 20.3755 15.0533 20.3755V20.3755Z" fill="#FFA96B"/>
<path d="M11.1574 19.3931H9.55992C9.82486 19.018 10.2155 18.4643 10.7902 17.6484C11.1247 17.1735 11.4342 16.6562 11.4342 16.0914C11.4342 15.1348 10.6261 14.3267 9.66959 14.3267C8.82823 14.3267 8.10001 14.9252 7.93804 15.7499C7.88609 16.0145 8.05845 16.2711 8.32305 16.3231C8.35484 16.3293 8.38648 16.3323 8.41768 16.3323C8.64634 16.3323 8.85054 16.1708 8.8963 15.9381C8.96851 15.5703 9.29376 15.3033 9.66959 15.3033C10.1207 15.3033 10.4577 15.7193 10.4577 16.0914C10.4577 16.385 10.2222 16.7589 9.9918 17.086C8.41197 19.3288 8.22701 19.5854 8.22007 19.595C8.11241 19.7436 8.09717 19.9399 8.18057 20.1034C8.26397 20.2668 8.43199 20.3697 8.61549 20.3697H11.1574C11.4271 20.3697 11.6457 20.151 11.6457 19.8814C11.6457 19.6118 11.4271 19.3931 11.1574 19.3931V19.3931Z" fill="#FFA96B"/>
</g>
<defs>
<clipPath id="clip0">
<rect width="25" height="25" fill="white"/>
</clipPath>
</defs>
</svg>
