<svg width="30" height="20" viewBox="0 0 30 20" fill="none" xmlns="http://www.w3.org/2000/svg">
<g clip-path="url(#clip0)">
<path d="M2.63655 15.856L11.1662 15.856L13.9628 18.6643C15.5482 20.2498 18.0641 20.3891 19.8148 18.9884L25.1761 14.6994C25.6501 15.4024 26.4537 15.8657 27.3635 15.8657H29.1212C29.6066 15.8658 30.0001 15.4723 30.0001 14.987L30.0001 0.925863C30.0001 0.440531 29.6066 0.0470145 29.1212 0.0470145H27.3636C26.3326 0.0470145 25.4384 0.642269 25.0052 1.50688C22.3755 0.538148 19.6225 0.0470145 16.8115 0.0470145C16.4399 0.0470145 13.6744 0.0470145 13.3025 0.0470145C11.8487 0.0470145 10.666 1.22973 10.666 2.6835C10.666 3.02657 10.7326 3.35428 10.8524 3.65522C9.73354 3.96008 8.90836 4.98459 8.90836 6.19877C8.90836 6.54184 8.97492 6.86955 9.09475 7.17049C7.9759 7.47535 7.15072 8.49987 7.15072 9.71405C7.15072 10.0228 7.20457 10.3192 7.30254 10.5948L2.63655 10.5948C1.18278 10.5948 6.10352e-05 11.7775 6.10352e-05 13.2313V13.2372C6.10352e-05 14.6877 1.18278 15.856 2.63655 15.856ZM26.4848 2.6835C26.4848 2.19893 26.879 1.80465 27.3636 1.80465H28.2424L28.2424 14.1082H27.3636C26.879 14.1082 26.4847 13.7139 26.4847 13.2293L26.4847 2.6835H26.4848ZM1.7577 13.2313C1.7577 12.7467 2.15192 12.3407 2.63655 12.3407L13.2937 12.3407C13.779 12.3407 14.1725 11.959 14.1725 11.4736C14.1725 10.9883 13.7791 10.5948 13.2937 10.5948L9.82571 10.5948C9.81282 10.5942 9.80016 10.5928 9.78721 10.5928C9.30264 10.5928 8.90836 10.1986 8.90836 9.71399C8.90836 9.22942 9.30258 8.83514 9.78721 8.83514L13.3025 8.83514C13.7878 8.83514 14.1813 8.44168 14.1813 7.95629C14.1813 7.4709 13.7879 7.07744 13.3025 7.07744L11.5448 7.07744C11.0603 7.07744 10.666 6.68322 10.666 6.1986C10.666 5.71397 11.0602 5.31975 11.5448 5.31975L13.3025 5.31975C13.7878 5.31975 14.1813 4.92629 14.1813 4.4409C14.1813 3.95551 13.7879 3.56205 13.3025 3.56205C12.8179 3.56205 12.4236 3.16784 12.4236 2.68321C12.4236 2.19858 12.8179 1.80436 13.3025 1.80436C13.6747 1.80436 16.4399 1.80436 16.8115 1.80436C19.5316 1.80436 22.1932 2.30059 24.7272 3.27987L24.7272 12.8077L18.7169 17.6159C17.6665 18.4563 16.157 18.3727 15.2057 17.4215L13.6519 15.856C16.6205 15.856 13.6753 15.8599 16.8178 15.8599C17.3031 15.8599 17.6967 15.4664 17.6967 14.981C17.6967 14.4957 17.3032 14.1139 16.8178 14.1139C16.625 14.1139 2.82973 14.11 2.6366 14.11C2.15203 14.11 1.75776 13.7184 1.75776 13.237V13.2313H1.7577Z" fill="#004B9A"/>
</g>
<defs>
<clipPath id="clip0">
<rect width="30" height="20" fill="white" transform="translate(30.0001 20) rotate(-180)"/>
</clipPath>
</defs>
</svg>
