<svg width="36" height="36" viewBox="0 0 36 36" fill="none" xmlns="http://www.w3.org/2000/svg">
<g clip-path="url(#clip0)">
<path d="M17.612 0C11.005 0 5.64801 5.321 5.64801 11.885C5.64801 15.243 8.94201 21.259 8.94201 21.259L17.171 35.219L25.757 21.422C25.757 21.422 29.571 15.682 29.571 11.885C29.572 5.321 24.216 0 17.612 0ZM17.556 18.431C13.772 18.431 10.707 15.366 10.707 11.578C10.707 7.795 13.771 4.732 17.556 4.732C21.338 4.732 24.406 7.795 24.406 11.578C24.406 15.366 21.338 18.431 17.556 18.431Z" fill="#F28C00"/>
</g>
<defs>
<clipPath id="clip0">
<rect width="35.219" height="35.219" fill="white"/>
</clipPath>
</defs>
</svg>
