<svg width="20" height="20" viewBox="0 0 20 20" fill="none" xmlns="http://www.w3.org/2000/svg">
<path d="M14.4583 0H5.54171C4.79886 0 4.19086 0.607429 4.19086 1.35086V18.6486C4.19086 19.3914 4.79886 19.9994 5.54171 19.9994H14.4583C15.2011 19.9994 15.8091 19.3926 15.8091 18.6486V1.35086C15.8091 0.608 15.2011 0 14.4583 0ZM8.57371 0.973714H11.4263C11.5166 0.973714 11.5897 1.04686 11.5897 1.13771C11.5897 1.228 11.5166 1.30114 11.4263 1.30114H8.57371C8.48343 1.30114 8.41029 1.228 8.41029 1.13771C8.41029 1.04686 8.48343 0.973714 8.57371 0.973714ZM10 19.3246C9.62743 19.3246 9.32457 19.0229 9.32457 18.6491C9.32457 18.2766 9.62686 17.9737 10 17.9737C10.3731 17.9737 10.6754 18.276 10.6754 18.6491C10.6754 19.0229 10.3726 19.3246 10 19.3246ZM14.8691 17.5H5.13029V2.14229H14.8691V17.5ZM12.5611 9.90857H12.0034V8.34686H12.0029C11.9943 7.24743 11.1011 6.35829 9.99886 6.35829C8.89657 6.35829 8.00343 7.24743 7.99486 8.34686H7.99429V9.90857H7.43714C7.31486 9.90857 7.21429 10.0091 7.21429 10.132V13.2503C7.21429 13.372 7.31486 13.4731 7.43714 13.4731H12.5594C12.6823 13.4731 12.7829 13.372 12.7829 13.2503V10.1314C12.784 10.0091 12.6829 9.90857 12.5611 9.90857ZM10.4189 12.2543H9.58057L9.85029 11.4697C9.67829 11.408 9.55543 11.2451 9.55543 11.0531C9.55543 10.8074 9.75429 10.6086 9.99943 10.6086C10.2446 10.6086 10.4434 10.808 10.4434 11.0531C10.4434 11.2457 10.3206 11.408 10.1486 11.4697L10.4189 12.2543ZM11.2257 9.90857H8.77543V8.34686L8.776 8.35314C8.78114 7.68286 9.33029 7.13771 10.0006 7.13771C10.6709 7.13771 11.22 7.68343 11.2257 8.35314V8.34686V9.90857V9.90857Z" fill="#F28C00"/>
</svg>
