<svg width="30" height="30" viewBox="0 0 30 30" fill="none" xmlns="http://www.w3.org/2000/svg">
<path d="M27.3635 9.14396H18.8338L16.0373 6.33568C14.4519 4.75019 11.936 4.61091 10.1852 6.0116L4.82396 10.3006C4.34994 9.59753 3.54633 9.13423 2.63654 9.13423H0.878848C0.393457 9.13418 0 9.52763 0 10.013V24.0741C0 24.5594 0.393457 24.953 0.878848 24.953H2.63648C3.6675 24.953 4.5617 24.3577 4.99482 23.4931C7.62457 24.4618 10.3776 24.953 13.1886 24.953C13.5602 24.953 16.3257 24.953 16.6976 24.953C18.1513 24.953 19.3341 23.7703 19.3341 22.3165C19.3341 21.9734 19.2675 21.6457 19.1477 21.3448C20.2665 21.0399 21.0917 20.0154 21.0917 18.8012C21.0917 18.4581 21.0251 18.1304 20.9053 17.8295C22.0242 17.5246 22.8493 16.5001 22.8493 15.2859C22.8493 14.9771 22.7955 14.6808 22.6975 14.4052H27.3635C28.8173 14.4052 30 13.2224 30 11.7687V11.7628C30 10.3123 28.8173 9.14396 27.3635 9.14396ZM3.51527 22.3165C3.51527 22.8011 3.12105 23.1953 2.63643 23.1953H1.75764V10.8918H2.63648C3.12105 10.8918 3.51533 11.286 3.51533 11.7707V22.3165H3.51527ZM28.2424 11.7687C28.2424 12.2532 27.8481 12.6592 27.3635 12.6592H16.7064C16.221 12.6592 15.8275 13.041 15.8275 13.5264C15.8275 14.0117 16.221 14.4052 16.7064 14.4052H20.1744C20.1872 14.4058 20.1999 14.4071 20.2129 14.4071C20.6974 14.4071 21.0917 14.8014 21.0917 15.286C21.0917 15.7706 20.6975 16.1648 20.2129 16.1648H16.6976C16.2122 16.1648 15.8187 16.5583 15.8187 17.0437C15.8187 17.5291 16.2122 17.9225 16.6976 17.9225H18.4552C18.9398 17.9225 19.3341 18.3168 19.3341 18.8014C19.3341 19.286 18.9398 19.6802 18.4552 19.6802H16.6976C16.2122 19.6802 15.8187 20.0737 15.8187 20.5591C15.8187 21.0445 16.2122 21.4379 16.6976 21.4379C17.1821 21.4379 17.5764 21.8321 17.5764 22.3168C17.5764 22.8014 17.1822 23.1956 16.6976 23.1956C16.3253 23.1956 13.5602 23.1956 13.1886 23.1956C10.4684 23.1956 7.80686 22.6994 5.27291 21.7201V12.1922L11.2832 7.38404C12.3335 6.54363 13.8431 6.62724 14.7944 7.57851L16.3482 9.14402C13.3796 9.14402 16.3248 9.14009 13.1822 9.14009C12.6969 9.14009 12.3034 9.53355 12.3034 10.0189C12.3034 10.5043 12.6969 10.8861 13.1822 10.8861C13.375 10.8861 27.1703 10.89 27.3635 10.89C27.848 10.89 28.2423 11.2816 28.2423 11.763V11.7687H28.2424Z" fill="#004B9A"/>
</svg>
