<svg width="50" height="50" viewBox="0 0 50 50" fill="none" xmlns="http://www.w3.org/2000/svg">
<path d="M25 50C11.2148 50 0 38.7852 0 25C0 11.2148 11.2148 0 25 0C38.7852 0 50 11.2148 50 25C50 38.7852 38.7852 50 25 50ZM25 3.57132C13.1844 3.57132 3.57132 13.1844 3.57132 25C3.57132 36.8156 13.1844 46.4287 25 46.4287C36.8156 46.4287 46.4287 36.8156 46.4287 25C46.4287 13.1844 36.8156 3.57132 25 3.57132Z" fill="#F28C00"/>
<path d="M33.9287 35.7143C33.4717 35.7143 33.0147 35.54 32.666 35.191L14.809 17.334C14.1113 16.6363 14.1113 15.5064 14.809 14.809C15.5064 14.1117 16.6367 14.1113 17.334 14.809L35.191 32.666C35.8887 33.3637 35.8887 34.4936 35.191 35.191C34.8423 35.54 34.3857 35.7143 33.9287 35.7143V35.7143Z" fill="#F28C00"/>
<path d="M16.0713 35.7143C15.6143 35.7143 15.1577 35.54 14.809 35.191C14.1113 34.4936 14.1113 33.3633 14.809 32.666L32.666 14.809C33.3637 14.1113 34.4936 14.1113 35.191 14.809C35.8883 15.5064 35.8887 16.6367 35.191 17.334L17.334 35.191C16.9853 35.54 16.5283 35.7143 16.0713 35.7143V35.7143Z" fill="#F28C00"/>
</svg>
