<svg width="20" height="20" viewBox="0 0 20 20" fill="none" xmlns="http://www.w3.org/2000/svg">
<path d="M17.8261 0.434799H2.1739C0.975652 0.434799 0 1.41045 0 2.6087V12.1739C0 13.3722 0.975652 14.3478 2.1739 14.3478H3.91304C4.15304 14.3478 4.34784 14.153 4.34784 13.913C4.34784 13.673 4.15304 13.4782 3.91304 13.4782H2.1739C1.45475 13.4782 0.869551 12.893 0.869551 12.1739V2.6087C0.869551 1.88955 1.45475 1.30435 2.1739 1.30435H17.8261C18.5452 1.30435 19.1304 1.88955 19.1304 2.6087V12.1739C19.1304 12.8931 18.5452 13.4783 17.8261 13.4783H16.0869C15.8469 13.4783 15.6521 13.6731 15.6521 13.9131C15.6521 14.1531 15.8469 14.3479 16.0869 14.3479H17.8261C19.0243 14.3479 20 13.3722 20 12.174V2.6087C20 1.41045 19.0243 0.434799 17.8261 0.434799Z" fill="#F28C00"/>
<path d="M18.1791 2.3539C18.0383 2.1591 17.767 2.11476 17.5722 2.25652L10.8156 7.13564C10.3209 7.49303 9.68001 7.49303 9.18521 7.13564L2.42869 2.25652C2.23304 2.1148 1.96174 2.15915 1.82172 2.3539C1.68085 2.5487 1.72435 2.82086 1.9191 2.96087L8.67562 7.83998C9.07129 8.12608 9.53563 8.26956 9.99998 8.26956C10.4643 8.26956 10.9287 8.12694 11.3252 7.83998L18.0817 2.96087C18.2757 2.82086 18.32 2.5487 18.1791 2.3539Z" fill="#F28C00"/>
<path d="M6.82871 7.51911C6.65914 7.34955 6.38348 7.34955 6.21391 7.51911L1.86607 11.8669C1.69651 12.0365 1.69651 12.3122 1.86607 12.4817C1.9513 12.5661 2.06258 12.6087 2.1739 12.6087C2.28522 12.6087 2.39649 12.5661 2.48087 12.4817L6.82871 8.13391C6.99827 7.96434 6.99827 7.68868 6.82871 7.51911Z" fill="#F28C00"/>
<path d="M18.133 11.8669L13.7852 7.51911C13.6156 7.34955 13.34 7.34955 13.1704 7.51911C13.0008 7.68868 13.0008 7.96434 13.1704 8.13391L17.5182 12.4817C17.6035 12.5661 17.7147 12.6087 17.8261 12.6087C17.9374 12.6087 18.0487 12.5661 18.133 12.4817C18.3026 12.3122 18.3026 12.0365 18.133 11.8669Z" fill="#F28C00"/>
<path d="M9.99998 9.99998C7.36259 9.99998 5.21739 12.1452 5.21739 14.7826C5.21739 17.42 7.36259 19.5652 9.99998 19.5652C11.2487 19.5652 12.4295 19.0878 13.3252 18.22C13.4982 18.053 13.5026 17.7774 13.3356 17.6052C13.1687 17.4322 12.8939 17.4295 12.7208 17.5947C11.9878 18.3052 11.0208 18.6956 9.99998 18.6956C7.84259 18.6956 6.08694 16.94 6.08694 14.7826C6.08694 12.6252 7.84259 10.8695 9.99998 10.8695C12.1574 10.8695 13.913 12.6252 13.913 14.7826C13.913 15.0226 14.1078 15.2174 14.3478 15.2174C14.5878 15.2174 14.7826 15.0226 14.7826 14.7826C14.7826 12.1452 12.6374 9.99998 9.99998 9.99998Z" fill="#F28C00"/>
<path d="M9.99998 12.6087C8.80173 12.6087 7.82608 13.5843 7.82608 14.7826C7.82608 15.9808 8.80173 16.9565 9.99998 16.9565C11.1982 16.9565 12.1739 15.9809 12.1739 14.7826C12.1739 13.5844 11.1983 12.6087 9.99998 12.6087ZM9.99998 16.087C9.28083 16.087 8.69563 15.5018 8.69563 14.7826C8.69563 14.0635 9.28083 13.4783 9.99998 13.4783C10.7191 13.4783 11.3043 14.0635 11.3043 14.7826C11.3043 15.5017 10.7191 16.087 9.99998 16.087Z" fill="#F28C00"/>
<path d="M14.3478 14.3478C14.1078 14.3478 13.913 14.5426 13.913 14.7826C13.913 15.7583 13.6939 16.087 13.0435 16.087C12.4661 16.087 12.1739 15.6478 12.1739 14.7826C12.1739 14.5426 11.9791 14.3478 11.7391 14.3478C11.4991 14.3478 11.3043 14.5426 11.3043 14.7826C11.3043 16.1435 11.9548 16.9565 13.0435 16.9565C14.7826 16.9565 14.7826 15.32 14.7826 14.7826C14.7826 14.5426 14.5878 14.3478 14.3478 14.3478Z" fill="#F28C00"/>
</svg>
