<svg width="25" height="25" viewBox="0 0 25 25" fill="none" xmlns="http://www.w3.org/2000/svg">
<g clip-path="url(#clip0)">
<path d="M4.43079 8.82492C4.16128 8.82492 3.9425 9.0435 3.9425 9.31301C3.9425 9.58252 4.16128 9.80129 4.43079 9.80129C4.70029 9.80129 4.91907 9.58252 4.91907 9.31301C4.91907 9.0435 4.70029 8.82492 4.43079 8.82492Z" fill="#FF9900"/>
<path d="M18.1114 14.6591C18.02 14.5676 17.8957 14.5161 17.7662 14.5161C17.7612 14.517 17.5735 14.5065 17.4209 14.6591L17.0759 15.0042L15.954 13.8825C18.4297 10.412 18.0532 5.62479 15.0043 2.57608C11.57 -0.858287 6.01081 -0.858859 2.57605 2.57608C-0.858317 6.01027 -0.85889 11.5696 2.57605 15.0044C5.61732 18.0458 10.4027 18.4361 13.8822 15.954L15.0041 17.0759L14.6591 17.421C14.4686 17.6115 14.4684 17.9209 14.6591 18.1116L20.832 24.284C21.7859 25.2384 23.3299 25.239 24.284 24.2842C25.2384 23.3305 25.2388 21.7863 24.284 20.8323L18.1114 14.6591ZM15.6946 16.3855L14.6492 15.3401C14.7707 15.2312 14.8895 15.1194 15.0043 15.0044C15.1194 14.8895 15.2311 14.7707 15.34 14.6494L16.3854 15.6948L15.6946 16.3855ZM3.26651 14.3139C0.213613 11.2612 0.213231 6.31964 3.26651 3.26655C6.31923 0.213643 11.2608 0.213262 14.3139 3.26655C17.3599 6.31239 17.3754 11.2528 14.3139 14.3139C11.2179 17.4103 6.27765 17.3252 3.26651 14.3139V14.3139ZM17.7662 15.6948L19.1469 17.0757L17.0757 19.1469L15.6948 17.7662L17.7662 15.6948ZM23.5935 23.5937C23.0213 24.1665 22.0953 24.1667 21.5227 23.5937L17.7662 19.8374L19.8374 17.7662L23.5937 21.5229C24.1663 22.0949 24.1669 23.021 23.5935 23.5937V23.5937Z" fill="#FF9900"/>
<path d="M13.6236 3.95717C10.9535 1.28708 6.62786 1.28555 3.95662 3.95679C1.29205 6.62193 1.29205 10.9585 3.95662 13.6238C6.62824 16.2952 10.9514 16.2954 13.6232 13.6238C16.2884 10.9585 16.2886 6.62212 13.6236 3.95717ZM12.9328 12.9332C10.643 15.2229 6.93742 15.2235 4.64708 12.9333C2.36322 10.6487 2.36322 6.93168 4.64708 4.64706C6.9357 2.35862 10.6438 2.35805 12.9332 4.64763C15.2174 6.93187 15.2172 10.6487 12.9328 12.9332Z" fill="#FF9900"/>
<path d="M8.79021 3.90835C7.48521 3.90835 6.25916 4.41608 5.33792 5.33791C4.80386 5.87196 4.41075 6.50291 4.16967 7.21359C4.08307 7.4688 4.21964 7.74612 4.47503 7.83272C4.73081 7.9195 5.00775 7.78217 5.09435 7.52735C5.2868 6.95991 5.60113 6.45561 6.02838 6.02818C6.76537 5.29099 7.74613 4.88491 8.79021 4.88491C9.05991 4.88491 9.27849 4.66633 9.27849 4.39663C9.27849 4.12693 9.05991 3.90835 8.79021 3.90835Z" fill="#FF9900"/>
</g>
<defs>
<clipPath id="clip0">
<rect width="25" height="25" fill="white"/>
</clipPath>
</defs>
</svg>
