<svg width="50" height="50" viewBox="0 0 50 50" fill="none" xmlns="http://www.w3.org/2000/svg">
<path d="M44.7917 50H5.20833C2.33542 50 0 47.6625 0 44.7917V5.20833C0 2.3375 2.33542 0 5.20833 0H44.7917C47.6646 0 50 2.3375 50 5.20833V44.7917C50 47.6625 47.6646 50 44.7917 50ZM5.20833 2.08333C3.48542 2.08333 2.08333 3.48542 2.08333 5.20833V44.7917C2.08333 46.5146 3.48542 47.9167 5.20833 47.9167H44.7917C46.5146 47.9167 47.9167 46.5146 47.9167 44.7917V5.20833C47.9167 3.48542 46.5146 2.08333 44.7917 2.08333H5.20833Z" fill="#F28C00"/>
<path d="M34.375 16.6667H15.625C15.05 16.6667 14.5833 16.2 14.5833 15.625C14.5833 15.05 15.05 14.5833 15.625 14.5833H34.375C34.95 14.5833 35.4167 15.05 35.4167 15.625C35.4167 16.2 34.95 16.6667 34.375 16.6667Z" fill="#F28C00"/>
<path d="M34.375 26.0417H15.625C15.05 26.0417 14.5833 25.575 14.5833 25C14.5833 24.425 15.05 23.9583 15.625 23.9583H34.375C34.95 23.9583 35.4167 24.425 35.4167 25C35.4167 25.575 34.95 26.0417 34.375 26.0417Z" fill="#F28C00"/>
<path d="M34.375 35.4167H15.625C15.05 35.4167 14.5833 34.95 14.5833 34.375C14.5833 33.8 15.05 33.3333 15.625 33.3333H34.375C34.95 33.3333 35.4167 33.8 35.4167 34.375C35.4167 34.95 34.95 35.4167 34.375 35.4167Z" fill="#F28C00"/>
</svg>
